<mxfile host="app.diagrams.net" modified="2023-05-26T12:25:39.067Z" agent="Mozilla/5.0 (X11; Ubuntu; Linux x86_64; rv:109.0) Gecko/20100101 Firefox/113.0" version="21.3.4" etag="jU5SAIVdqnyrYbn-N0dz" type="github">
  <diagram name="Page-1" id="RiMYpFyZdl9bBzSJSrvy">
    <mxGraphModel>
      <root>
        <mxCell id="0" />
        <mxCell id="1" parent="0" />
      </root>
    </mxGraphModel>
  </diagram>
</mxfile>
